{"accessors":[{"name":"Node-Mesh_positions","componentType":5126,"count":14287,"min":[-1.0175169706344604,-1.012665033340454,-3.388875961303711],"max":[126.21711730957031,124.75898742675781,549.0904541015625],"type":"VEC3","bufferView":0,"byteOffset":0},{"name":"Node-Mesh_normals","componentType":5126,"count":14287,"min":[-6.28097677230835,-6.281357765197754,-6.283185005187988],"max":[6.264321804046631,6.27813720703125,6.283166885375977],"type":"VEC3","bufferView":0,"byteOffset":171444},{"name":"Node-Mesh_0_indices","componentType":5123,"count":85122,"min":[0],"max":[14286],"type":"SCALAR","bufferView":1,"byteOffset":0}],"asset":{"generator":"obj2gltf","version":"2.0"},"buffers":[{"name":"input","byteLength":513132,"uri":"data:application/octet-stream;base64,"}],"bufferViews":[{"name":"bufferView_0","buffer":0,"byteLength":342888,"byteOffset":0,"byteStride":12,"target":34962},{"name":"bufferView_1","buffer":0,"byteLength":170244,"byteOffset":342888,"target":34963}],"materials":[{"name":"default","pbrMetallicRoughness":{"baseColorFactor":[0.5,0.5,0.5,1],"metallicFactor":0,"roughnessFactor":1},"emissiveFactor":[0,0,0],"alphaMode":"OPAQUE","doubleSided":false}],"meshes":[{"name":"Node-Mesh","primitives":[{"attributes":{"POSITION":0,"NORMAL":1},"indices":2,"material":0,"mode":4}]}],"nodes":[{"name":"Node","mesh":0}],"scene":0,"scenes":[{"nodes":[0]}]}
